<svg aria-hidden="true" style="position:absolute;width:0;height:0;overflow:hidden" xmlns="http://www.w3.org/2000/svg">
  <defs>
   <symbol id="icon-stack" viewBox="0 0 32 32">
<path d="M32 10l-16-8-16 8 16 8 16-8zM16 4.655l10.689 5.345-10.689 5.345-10.689-5.345 10.689-5.345zM28.795 14.398l3.205 1.602-16 8-16-8 3.205-1.602 12.795 6.398zM28.795 20.398l3.205 1.602-16 8-16-8 3.205-1.602 12.795 6.398z"></path>
</symbol>
   <symbol id="icon-spinner" viewBox="0 0 32 32">
      <path d="M12 4c0-2.209 1.791-4 4-4s4 1.791 4 4c0 2.209-1.791 4-4 4s-4-1.791-4-4zM24.719 16c0 0 0 0 0 0 0-1.812 1.469-3.281 3.281-3.281s3.281 1.469 3.281 3.281c0 0 0 0 0 0 0 1.812-1.469 3.281-3.281 3.281s-3.281-1.469-3.281-3.281zM21.513 24.485c0-1.641 1.331-2.972 2.972-2.972s2.972 1.331 2.972 2.972c0 1.641-1.331 2.972-2.972 2.972s-2.972-1.331-2.972-2.972zM13.308 28c0-1.487 1.205-2.692 2.692-2.692s2.692 1.205 2.692 2.692c0 1.487-1.205 2.692-2.692 2.692s-2.692-1.205-2.692-2.692zM5.077 24.485c0-1.346 1.092-2.438 2.438-2.438s2.438 1.092 2.438 2.438c0 1.346-1.092 2.438-2.438 2.438s-2.438-1.092-2.438-2.438zM1.792 16c0-1.22 0.989-2.208 2.208-2.208s2.208 0.989 2.208 2.208c0 1.22-0.989 2.208-2.208 2.208s-2.208-0.989-2.208-2.208zM5.515 7.515c0 0 0 0 0 0 0-1.105 0.895-2 2-2s2 0.895 2 2c0 0 0 0 0 0 0 1.105-0.895 2-2 2s-2-0.895-2-2zM28.108 7.515c0 2.001-1.622 3.623-3.623 3.623s-3.623-1.622-3.623-3.623c0-2.001 1.622-3.623 3.623-3.623s3.623 1.622 3.623 3.623z"></path>
  </symbol>
  <symbol id="icon-checkmark" viewBox="0 0 32 32">
<path d="M27 4l-15 15-7-7-5 5 12 12 20-20z"></path>
</symbol>
<symbol id="icon-point" viewBox="0 0 32 32">
<path d="M4 4h24v24h-24z"></path>
</symbol>
<symbol id="icon-heart" viewBox="0 0 32 32">
<path d="M23.6 2c-3.363 0-6.258 2.736-7.599 5.594-1.342-2.858-4.237-5.594-7.601-5.594-4.637 0-8.4 3.764-8.4 8.401 0 9.433 9.516 11.906 16.001 21.232 6.13-9.268 15.999-12.1 15.999-21.232 0-4.637-3.763-8.401-8.4-8.401z"></path>
</symbol>
    
  </defs>
</svg>
